<?xml version="1.0" encoding="UTF-8"?><svg xmlns="http://www.w3.org/2000/svg" viewBox="0 0 374.07 354.6"><defs><style>.g{stroke:#7973f4;}.g,.h,.i,.j{stroke-miterlimit:10;}.g,.j{fill:#0f5fa6;}.k{fill:#d7dadb;}.h{stroke-width:5px;}.h,.i{fill:none;}.h,.i,.j{stroke:#0f5fa6;}.l{fill:#c0c8cc;}.m{fill:#0a3871;}.n{opacity:.41;}.o{fill:#f2762e;}</style></defs><g id="a"/><g id="b"><g id="c"><g><path class="o" d="M122.7,66.13l-15.88,13.02-2.28,1.87c-.62,.51,.27,1.39,.88,.88l15.88-13.02,2.28-1.87c.62-.51-.27-1.39-.88-.88h0Z"/><line class="i" x1="104.98" y1="101.64" x2="92.04" y2="113.05"/><line class="i" x1="102.21" y1="96.71" x2="81.87" y2="101.69"/><line class="i" x1="110.6" y1="103.81" x2="107.15" y2="122.29"/><path class="l" d="M257.76,65.56s3.7,40.41-16.77,53.2c0,0,12.25-4.39,14.11-8.34s3.46-2.62,7.37-12.71v-3.7l-.48,.47,5.19,.52,5.79-5.29,2.57-4.66-.11-1.82-2.68-3.84-2.3-.98-2.14,.45h-1.59l-3.33,1.11-1.51,.89-1.3-9.29-2.83-6Z"/><path class="l" d="M214.25,180.02s-14.83,5.87-21.68,1.78c-10.5-6.26-5.47-75.77-5.47-75.77l-1.81,.44-.62,2.57-2.66-.1-3.46-1.49-5.09,5.16,1.67,.87c1.37,.72,2.56,1.73,3.49,2.97l2.57,3.45,3.26,2.44-2.26,40.87s-.04,18.13,2.5,19.03,1.52,7.23,15.29,6.47l8.32-3.78,5.96-4.92Z"/><polygon class="l" points="254.49 109.46 258.77 127.46 263.39 123.6 264.03 121.46 263.33 117.7 261.99 94.47 254.49 108.51 254.49 109.46"/><path class="k" d="M285.96,230.13s-37.68,55.75-50.06,73.72c0,0-9.05,10.91,4.39,7.05s56.6-36.46,56.6-36.46l-6.99-8.57,4.8-12.45,2.62-14.64-.43-13.11-10.94,4.46Z"/><path class="l" d="M292.1,136.8s14.39,59.55-11.34,84.04c0,0,10.04-3.27,13.56-9.37s5.71-12.02,5.71-12.02v-46.7l-3.86-12-4.07-3.96Z"/><polygon class="l" points="265.96 226.72 243.3 233.48 233.73 248.15 237.08 248.53 242.17 240.99 246.83 234.88 265.96 226.72"/><g id="d"><g id="e"><path d="M341.35,262.84c-6.75,8.68-34.23,7.88-34.23,7.88l-6.75,7.18s-9.86-12.32-10.39-12.32l7.34-3.54s1.77-4.98,3.53-7.23c1.77-2.25,4.18-2.57,9.81,0,5.62,2.57,18.48,2.73,26.52,3.37,8.03,.65,4.17,4.66,4.17,4.66Z"/><path class="m" d="M297.24,225.25c-.15-.53-.32-.79-.51-.71-15.44,10.86-39.19,8.5-44.25,7.85,9.7-3.8,31.78-12.65,37.5-16.64,2.91-2.02,5.14-5.04,6.77-7.96l.49,17.46Z"/><path class="i" d="M252.48,232.39c-.63-.09-.97-.14-.97-.14"/><path class="i" d="M297.24,225.25v.02c1.41,5.44-.18,38.99-11.87,44.06l-33.86,28.07"/><path class="i" d="M244.65,237.61l4.71,2.79-25.29,21.86s-15.79,13.5-19.79,30.21,1.14,26.57,1.14,26.57c0,0,9,14.14,33.64,3.21,24.64-10.93,52.5-31.71,52.5-31.71l8.36-8.54,.43-4.11"/><path class="i" d="M236.24,226.3l-52.45,48.16s-9,8.14-8.57,22.93,6.21,18.64,15.64,18.64,13.43-.04,13.43-.04"/><path class="i" d="M300.37,157.98v41.06s-1.1,4.25-3.62,8.74h0c-1.63,2.93-3.86,5.95-6.77,7.97-5.72,3.99-27.8,12.84-37.5,16.64-2.83,1.11-4.61,1.79-4.61,1.79l-2.77,3.69-1.66,2.22-6.02,8.02s-2.73,1.02-2.46-1.23c0,0-.51,.58-1.37,1.26,0,.01-.03,.02-.04,.03-1.1,.87-2.74,1.88-4.59,2.03-3.32,.27-4.18-.96-4.18-.96,0,0-2.51-.59-1.1-2.34,.06-.1,.14-.19,.24-.29,0,0-2.67,2.36-6.32,.43,0,0-2.68-2.46,3.97-4.13,6.64-1.66,10.82-8.78,10.82-8.78,0,0,3.48-5.36,3.86-7.82,.37-2.47-7.07-4.39-7.07-4.39,0,0-1.72-1.02-1.72-2.9s4.29-.91,4.29-.91c0,0,1.96,.6,4.5,1.27,3.38,.9,7.81,1.91,10.07,1.79,3.96-.22,11.3-5.09,11.3-5.09,0,0,15.75-12.22,22.98-21.06l-.48-49.82s-1.04-10.2,6.51-10.45c4.9-.16,8.18,3.21,9.88,5.59,.91,1.29,1.37,2.29,1.37,2.29,0,0,1.61,3.05,2.49,15.35Z"/><path class="i" d="M237.26,236.8s-7.67,10.27-13.59,10.09"/><path class="i" d="M242.51,238.36s-6.29,7.3-8.96,9.81"/><line class="i" x1="297.24" y1="225.27" x2="297.24" y2="225.25"/><line class="i" x1="296.75" y1="207.79" x2="296.75" y2="207.78"/><path class="m" d="M296.51,140.34c-1.7-2.38-4.98-5.75-9.88-5.59-7.55,.25-6.51,10.45-6.51,10.45l.48,49.82c-7.23,8.84-22.98,21.06-22.98,21.06,0,0-7.34,4.87-11.3,5.09-2.26,.12-6.69-.89-10.07-1.79,0,0-.59-23.13-3.81-30.2-1.74-3.84-4.37-13.36-6.41-21.26-1.72-6.66-3.02-12.17-3.02-12.17v-21s7.93-12.85,23.79-13.71c0,0,.05,2.95,2.3,7.12,2.25,4.18,5.15,2.42,5.15,2.42,0,0,8.03-5.63,9.48-7.4,1.45-1.76,0-4.98,0-4.98,0,0,27.78,4.26,32.78,22.14Z"/><path class="i" d="M263.73,118.2l-1.27-19.55v-.14l-.28-4.06v-.17l-.06-.83v3.7c-2.05,9.24-9.35,14.92-13.41,17.44,0,0-.04,.02-.14,.08-1.58,.97-2.63,1.44-2.63,1.44l.86,4.93"/><polyline class="i" points="223.01 134.75 206.35 158.7 200.3 164.32"/><path class="i" d="M226.03,167.92s-15.82,18.1-23.37,19.71-18.96,1.54-19.93-15.06,1.61-49.87,1.61-49.87l-3.38-3.86,13.18-13.82-4.5-4.34s-1.31-3.74,1.02-3.96c0,0,6.32-1.93,9.64,5.25,0,0-.54,12.86-3.43,16.23l.48,17.52,2.95,33.43"/><path class="i" d="M182.17,117.56l-6.36,5.78s-9.48-.8-6.43-7.07l6.43-5.95,.6-4.73,.04-.3,.32-2.52s.48-3.86,2.89-3.05,6.11,4.34,5.95,7.55-4.02,1.61-4.02,1.61l-4.4-3.54"/><path class="i" d="M169.39,116.27s7.88-.48,6.43,7.07"/><path class="i" d="M177.98,99.61s.99-2.02,2.81-2.28c.61-.09,1.3,.02,2.09,.46,2.63,1.48,5.38,3.82,5.81,5.48,.08,.32,.08,.61-.02,.87-.64,1.61-2.08,2.25-3.05,2.65"/><path class="i" d="M188.75,103.73s2.57-2.35-.88-6.44-4.5-3.13-4.5-3.13c0,0-1.93,.52-1.85,2.31s0,.82,0,.82"/><path class="i" d="M184.01,94.07s2.49-3.68,5.3-1.19,2.63,3.62,2.63,3.62"/><line class="i" x1="190.71" y1="94.26" x2="196.87" y2="89.43"/><line class="i" x1="198.01" y1="98.66" x2="202.57" y2="94.26"/><path class="i" d="M235.76,78.82s.75,3.11,3.96,3.21,4.18-3.21,4.18-3.21"/><path class="i" d="M216.15,97.57s-.75,5.89,2.68,11.25,9.89,14.72,19.07,10.71,10.81-4.95,10.81-4.95"/><ellipse class="i" cx="229.19" cy="103.09" rx="2.32" ry="4.98"/><ellipse class="j" cx="220.48" cy="78.29" rx="1.18" ry="4.39"/><path class="i" d="M233.51,67.04s1.53-3.12,5.68-3.64c5.89-.75,8.57,5.36,8.57,5.36"/><path class="i" d="M227.4,71s-4.13,13.82-.89,18.43"/><path class="i" d="M216.08,95.72c-2.21-7.21,1.25-27.82,1.25-27.82,0,0,8.36-11.89,22.07-11.68,13.71,.21,18,8.79,18,8.79,0,0,3.86,5.04,4.61,15.43,0,0,7.61-5.68,12.32-.22s-5.25,13.86-5.25,13.86c0,0-7.61,3.11-8.46-2.05"/><line class="i" x1="201.15" y1="78.82" x2="221.65" y2="66.61"/><line class="i" x1="202.57" y1="86.97" x2="219.75" y2="74.84"/><path class="i" d="M214.44,67.89s1.18-3.54,3.86-3.75,5.25,1.18,6.11,3.75"/><path class="m" d="M262.46,98.64s10.91-2.36,16.27-8.14,7.07-8.46,7.07-8.46c0,0,3.54-4.5,.96-9.75s1.93-10.5,1.93-10.5l3.75-12s-1.18,3.32-6.96,2.89c0,0-2.04-3.11,.54-6.86s-.54-12.75-.54-12.75c0,0-.11,7.82-4.29,9.11s-5.25-2.04-4.71-4.71,2.89-10.39,.43-15.32c0,0-2.25,11.89-10.61,12s-5.36-4.39-5.36-4.39l1.18-6.43s-8.79,12.54-15.86,13.71c0,0-6.16,3.7-13.88,3.86s-15.27,10.87-14.95,15.32c0,0-.8,10.81-.11,11.68,0,0,9.02-13.41,25.41-11.45,16.4,1.96,17.07,14.26,19.26,23.98,0,0,6.97-4.07,9.64-2.14s6.9,4.47,1.65,11.14-6.53,5.41-11.19,4.83l.34,4.38Z"/><circle class="j" cx="39.58" cy="161.77" r="5.35"/><circle class="j" cx="336.92" cy="128.69" r="5.35"/><circle class="j" cx="34.23" cy="45.72" r="4.18"/><circle class="j" cx="189.26" cy="232.63" r="4.18"/><circle class="j" cx="370.73" cy="195.33" r="2.84"/><circle class="g" cx="303.21" cy="3.34" r="2.84"/><circle class="j" cx="165.94" cy="177.95" r="2.84"/><circle class="j" cx="12.64" cy="248.17" r="2.84"/><path class="o" d="M150.14,66.45l15.9,13.54,2.3,1.96v-.88l-26.99,24.1-3.85,3.44,1.04,.28-12.03-31.87-1.68-4.46c-.28-.75-1.49-.42-1.21,.33l12.03,31.87,1.68,4.46,1.04-.61-11.22-9.47-17.99-15.19-4.11-3.47-.28,1.04,19.7-7.86c.33-.13,.52-.41,.44-.77l-1.53-7.04-.6,.79h25.43c.58,0,1.21,.07,1.79,0,.68-.09,1.35-.46,1.99-.7l9.02-3.44c.63-.24,.58-1.23-.17-1.23l-15.68,.11-25.14,.18-5.75,.04c-.58,0-.91,.9-.32,1.16l8.52,3.78,.48-1.14-8.6-3.5c-.24-.1-.59,.06-.71,.29l-9.56,18.39c-.37,.71,.71,1.35,1.08,.63l9.56-18.39-.71,.29,8.6,3.5c.65,.26,1.13-.86,.48-1.14l-8.52-3.78-.32,1.16,15.68-.11,25.14-.18,5.75-.04-.17-1.23-7.86,3c-.94,.36-1.93,.88-2.91,1.11,.27-.06,0-.01-.15-.01-.35,0-.7,0-1.05,0h-25.93c-.42,0-.69,.4-.6,.79l1.53,7.04,.44-.77-19.7,7.86c-.39,.16-.67,.71-.28,1.04l11.22,9.47,17.99,15.19,4.11,3.47c.43,.36,1.29,.03,1.04-.61l-12.03-31.87-1.68-4.46c-.28-.75-1.49-.42-1.21,.33l12.03,31.87,1.68,4.46c.17,.45,.67,.61,1.04,.28l26.99-24.1,3.85-3.44c.24-.21,.25-.67,0-.88l-15.9-13.54-2.3-1.96c-.61-.52-1.5,.36-.88,.88h0Z"/><path class="o" d="M169.38,81.33l-7.94-19.61c-.12-.29-.42-.56-.77-.44l-11.43,4.12c-.28,.1-.43,.31-.46,.6l-.43,4.6c-.07,.7-.09,1.42-.2,2.11,0-.04,.02-.07-.07,.2-.68,2.21-1.32,4.43-1.99,6.65l-6.94,23.23-1.81,6.07c-.23,.77,.98,1.1,1.21,.33l4.84-16.2,5.82-19.47c.2-.68,.25-1.35,.31-2.06l.52-5.46-.46,.6,11.43-4.12-.77-.44,7.94,19.61c.3,.74,1.51,.41,1.21-.33h0Z"/><path class="o" d="M169.1,80.96l-18.51-8.03c-.58-.25-1.23-.65-1.86-.74-.88-.12-1.88,.02-2.76,.03l-12.39,.11-9.26,.08c-.8,0-.81,1.26,0,1.25l20.2-.18c1.26-.01,2.53,.03,3.79-.03,.32-.02,.64,.08,.17-.08,.27,.09,.54,.23,.8,.35l10.22,4.43,8.98,3.89c.73,.32,1.37-.76,.63-1.08h0Z"/><line class="i" x1="147.69" y1="44.32" x2="150.69" y2="31.79"/><line class="i" x1="154.23" y1="44.32" x2="165.37" y2="34.79"/><line class="i" x1="161.19" y1="50.11" x2="173.3" y2="49.04"/><ellipse class="h" cx="212.48" cy="76.34" rx="19.04" ry="19.38"/></g><g id="f" class="n"><path class="i" d="M345.37,339.82s-79.38-8.79-93.8-6.86-31.13,9.43-31.13,9.43"/><path class="i" d="M346.44,304.04s-53.49-8.43-71.85-1.75"/><path class="i" d="M331.87,301.87s-.21-12.19,4.29-9.19c0,0,5.36-11.5,8.36-10.68,0,0,9.64-14.82,11.79-15.04s-9.86,22.29-9.86,22.29l7.07-9.21s-8.19,23.8-11.24,23.39"/><polyline class="i" points="81.15 352.89 94.65 345.61 102.8 340.47 129.8 349.25"/><path class="i" d="M121.44,354.18s10.93-7.29,16.5-5.79,11.57,3.01,14.57,2.79c.89-.06,2.21-.3,3.7-.53,3.55-.56,8.06-1.12,10.02,.53,2.79,2.35,7.5,0,7.5,0"/><path class="i" d="M156.8,352.89l-16.07-50.57v7.29l-3.21-9s-4.5,10.29,0,21.86-16.07-47.14-16.07-47.14l-.86,12,1.93,3.21-4.29-4.93s3.21,28.29,8.36,32.57c0,0-5.57-1.07-1.29,4.93s7.71,10.93,7.71,10.93c0,0-5.57-1.5-3.21,1.5s9.4,13.19,9.4,13.19"/><polyline class="i" points=".37 291.39 7.44 283.68 17.94 282.39 25.87 278.32 66.37 291.39"/><path class="i" d="M71.08,284.86s-10.59-2.16-13.87,3.58"/><path class="i" d="M15.58,326.48s16.07-10.29,32.79-9.64c16.71,.64,20.09,6.43,28.45,3.86,8.36-2.57,13.82-2.89,18.16-1.77s10.5,.8,10.5,.8"/><path class="i" d="M80.94,284.86s-11.57-10.98-9.86-13.69-5.14-7.42-2.79-8.28-9.64-24.43-9.64-24.43l31.29,46-27.43-47.66h3.86s-13.59-30.7-9.15-33.27,24.15,53.36,24.15,53.36l-4.93-21.64,7.07,12.92-3-14.63,23.57,46.5"/><path class="i" d="M105.37,275.32s2.79-5.73,9.21-4.15,48.52,10.15,48.52,10.15"/><path class="i" d="M179.35,277.14l-12.38-1.04s-6.84,3.7-6.79,4.62"/><path class="i" d="M205.73,253.04l-27.34-1.93s-6.43,.16-13.82,6.27c-7.39,6.11-14.3,11.09-14.3,11.09"/><polyline class="i" points="140.3 246.9 118.23 244.15 106.55 247.73"/><path class="i" d="M110.24,211.41l6.91,1.12,4.34,1.45,7.88-1.29h4.87l3.28,1.29,5.36-1.29h3.86s2.25-.32,2.73,0,5.95,0,5.95,0"/><path class="i" d="M94.49,28.52s2.09,13.45,8.68,15.8c0,0-10.29,8.62-8.68,14.73,0,0-4.34-15.16-9.8-14.73,0,0,10.12-6.64,9.8-15.8Z"/><path class="i" d="M106.87,25.47s.16-4.18,6.11,0,11.34-1.86,11.34-1.86l8.11,2.66,9-2.66,7.77,1.67h4.04"/><path class="i" d="M289.12,94.25s7.88-1.89,10.12,1.47c0,0,4.18-4.52,9.8-2.27s9.16-.63,9.16-.63c0,0,4.98,.82,6.59,1.45s9.15-3.52,12.13,0"/><path class="i" d="M319.65,56.21s1.93-3,9.64,0,10.29-3.1,10.29-3.1c0,0,3.38,3.15,7.07,3.1s6.11-3.59,7.71-3.1,5.95-.05,5.95-.05c0,0-.48,2.17,1.29,1.99s6.59-1.99,6.59-1.99c0,0,4.18,.88,5.3,1.99"/><path class="i" d="M302.08,29.75s7.29,0,12.21,2.57,7.71-2.57,7.71-2.57c0,0,7.07,5.3,10.5,3.29s10.5-6.93,17.14-4.79,10.29-.53,10.29-.53c0,0,11.14-2.47,11.57,3.96"/></g></g></g></g></g></svg>